<?xml version="1.0" encoding="UTF-8"?>
<svg id="Layer_1" xmlns="http://www.w3.org/2000/svg" version="1.1" viewBox="0 0 25 25">
  <!-- Generator: Adobe Illustrator 29.8.2, SVG Export Plug-In . SVG Version: 2.1.1 Build 3)  -->
  <defs>
    <style>
      .st0 {
        fill: none;
        stroke: #2d3488;
        stroke-width: .2px;
      }

      .st0, .st1 {
        stroke-miterlimit: 10;
      }

      .st1 {
        fill: #2d3488;
        stroke: #2d3488;
        stroke-width: .25px;
      }

      .st2 {
        fill: #e2e4f2;
      }
    </style>
  </defs>
  <path class="st2" d="M.6,12.5h0C.6,6.15,5.75,1,12.1,1h0c6.35,0,11.5,5.15,11.5,11.5h0c0,6.35-5.15,11.5-11.5,11.5h0C5.75,24,.6,18.85.6,12.5Z"/>
  <g>
    <path class="st0" d="M12.1,24.45h0C5.75,24.45.6,19.3.6,12.95h0C.6,6.6,5.75,1.45,12.1,1.45h0c6.35,0,11.5,5.15,11.5,11.5h0c0,6.35-5.15,11.5-11.5,11.5Z"/>
    <path class="st0" d="M12.9,24.45h0c-6.35,0-11.5-5.15-11.5-11.5h0C1.4,6.6,6.55,1.45,12.9,1.45h0c6.35,0,11.5,5.15,11.5,11.5h0c0,6.35-5.15,11.5-11.5,11.5Z"/>
    <path class="st0" d="M.6,12.05h0C.6,5.7,5.75.55,12.1.55h0c6.35,0,11.5,5.15,11.5,11.5h0c0,6.35-5.15,11.5-11.5,11.5h0C5.75,23.55.6,18.4.6,12.05Z"/>
  </g>
  <g>
    <path class="st1" d="M12.5,11.7c.77,0,1.4-.63,1.4-1.4s-.63-1.4-1.4-1.4-1.4.63-1.4,1.4.63,1.4,1.4,1.4h0ZM12.5,9.3c.55,0,1,.45,1,1s-.45,1-1,1-1-.45-1-1,.45-1,1-1h0ZM12.5,9.3"/>
    <path class="st1" d="M12.46,17.45l3.07-4.43c1.15-1.53.98-4.06-.36-5.4-.72-.72-1.69-1.12-2.71-1.12s-1.99.4-2.71,1.12c-1.34,1.34-1.51,3.86-.36,5.39l3.07,4.44ZM10.04,7.91c.65-.65,1.51-1.01,2.43-1.01s1.78.36,2.43,1.01c1.21,1.21,1.36,3.49.31,4.88l-2.74,3.96-2.75-3.97c-1.04-1.39-.89-3.66.32-4.87h0ZM10.04,7.91"/>
    <path class="st1" d="M14.92,15.1c-.11-.01-.21.07-.22.17-.01.11.07.21.18.22,2.1.25,3.22.91,3.22,1.3,0,.54-2.13,1.3-5.6,1.3s-5.6-.76-5.6-1.3c0-.39,1.12-1.05,3.22-1.3.11-.01.19-.11.18-.22-.01-.11-.11-.19-.22-.17-2.11.25-3.58.95-3.58,1.7,0,.84,2.06,1.7,6,1.7s6-.86,6-1.7c0-.75-1.47-1.45-3.58-1.7h0ZM14.92,15.1"/>
  </g>
</svg>