<?xml version="1.0" encoding="UTF-8"?>
<svg id="Layer_1" xmlns="http://www.w3.org/2000/svg" version="1.1" viewBox="0 0 125 25">
  <!-- Generator: Adobe Illustrator 29.8.2, SVG Export Plug-In . SVG Version: 2.1.1 Build 3)  -->
  <defs>
    <style>
      .st0 {
        fill: #ea2137;
      }

      .st1 {
        fill: #2d3488;
      }
    </style>
  </defs>
  <path class="st1" d="M5.76,10.48v-.26h2.2c.51,0,.99-.1,1.45-.3s.83-.54,1.12-1,.43-1.09.43-1.88-.14-1.45-.43-1.97c-.29-.52-.67-.91-1.12-1.17-.46-.26-.94-.39-1.45-.39H2.16v-.39h5.8c1.51,0,2.72.29,3.63.88s1.37,1.53,1.37,2.83-.43,2.23-1.29,2.8-2.1.86-3.71.86h-2.2ZM2.16,18.11v-.39h6c.57,0,1.1-.15,1.59-.46.49-.3.88-.74,1.17-1.31s.44-1.25.44-2.04-.15-1.43-.44-1.91-.68-.84-1.17-1.06-1.02-.33-1.59-.33h-2.4v-.25h2.61c.94,0,1.8.12,2.59.35s1.42.61,1.89,1.13c.47.52.71,1.21.71,2.08,0,1.5-.46,2.58-1.39,3.23s-2.19.97-3.8.97H2.16ZM3.96,17.96V3.27h1.91v14.7h-1.91Z"/>
  <path class="st1" d="M19.15,8.91v8.81h1.42v.39h-4.48v-.39h1.31v-8.42h-1.31v-.39s3.06,0,3.06,0ZM18.92,13.82c0-.59.06-1.18.19-1.78.12-.6.31-1.15.56-1.65s.56-.9.94-1.21c.38-.31.82-.46,1.33-.46.37,0,.68.07.94.21s.46.32.59.55c.13.23.2.47.2.73,0,.34-.1.63-.31.87s-.48.36-.83.36-.63-.1-.84-.29c-.21-.2-.32-.45-.32-.75,0-.37.12-.65.37-.84s.51-.28.79-.28c.21,0,.4.04.57.12s.3.2.4.33c.1.14.15.3.15.48h-.39c0-.21-.06-.39-.19-.56s-.29-.3-.5-.39-.43-.14-.68-.14c-.4,0-.77.13-1.11.41-.34.27-.63.63-.88,1.09s-.44.96-.57,1.52-.2,1.12-.2,1.68h-.23.02Z"/>
  <path class="st1" d="M28.83,8.91v8.81h1.31v.39h-4.41v-.39h1.3v-8.42h-1.3v-.39s3.1,0,3.1,0ZM27.94,5.37c-.33,0-.62-.12-.85-.35-.23-.24-.35-.52-.35-.86s.12-.61.35-.84c.23-.24.52-.36.85-.36s.61.12.84.36.36.52.36.84-.12.62-.35.86c-.23.24-.52.35-.85.35Z"/>
  <path class="st1" d="M36.82,23.31c-.61,0-1.18-.05-1.71-.16s-1-.26-1.42-.49c-.41-.22-.73-.5-.96-.84s-.35-.75-.35-1.22.1-.83.31-1.14c.2-.31.46-.56.76-.75s.61-.32.92-.4.58-.12.81-.12h.29c-.45.23-.78.53-.97.9-.2.37-.29.81-.29,1.3,0,.42.11.82.33,1.2s.54.69.97.92c.43.24.96.35,1.6.35.5,0,.97-.06,1.4-.18s.81-.3,1.13-.54.58-.52.76-.86c.18-.34.27-.73.27-1.16,0-.39-.1-.73-.31-1s-.49-.48-.85-.63c-.36-.15-.75-.22-1.18-.22h-2.33c-.9,0-1.62-.12-2.16-.37s-.81-.67-.81-1.27c0-.35.1-.67.3-.93.2-.27.48-.5.83-.68.35-.18.74-.32,1.17-.42.44-.09.89-.14,1.37-.14l-.02.28c-.21,0-.45.03-.71.08s-.51.13-.75.24-.43.24-.58.39c-.15.15-.22.33-.22.52,0,.35.18.55.54.62s.82.11,1.37.11h.64c.19,0,.38,0,.56-.01h.56c.37,0,.75.03,1.14.1s.75.2,1.08.41.6.51.79.92c.2.4.3.95.3,1.62,0,.63-.13,1.18-.39,1.62-.26.45-.6.82-1.04,1.1s-.93.49-1.47.63-1.1.21-1.67.21h-.01ZM36.46,14.84c-.41,0-.82-.06-1.23-.17-.42-.11-.8-.29-1.16-.53s-.64-.56-.86-.95c-.22-.39-.33-.86-.33-1.4s.11-1.03.33-1.42.5-.71.86-.95.74-.42,1.16-.53.83-.17,1.23-.17.82.06,1.23.17.78.29,1.12.53.61.56.82.95c.21.39.31.86.31,1.42s-.1,1.01-.31,1.4c-.21.39-.48.71-.82.95s-.72.42-1.12.53c-.41.11-.82.17-1.23.17ZM36.46,14.45c.39,0,.72-.12.98-.36s.45-.56.57-.97c.12-.4.19-.85.19-1.34s-.06-.94-.19-1.34c-.12-.4-.31-.73-.57-.96-.26-.24-.58-.36-.98-.36s-.72.12-.97.36-.44.56-.57.96-.19.85-.19,1.34.04.94.1,1.34c.07.4.23.73.47.97s.63.36,1.16.36ZM41.9,11.42c-.25,0-.49-.09-.7-.26s-.31-.42-.31-.75.11-.57.32-.71.45-.21.69-.21.48.07.71.21c.22.14.33.35.33.62h-.38c0-.27-.11-.53-.32-.77-.21-.24-.52-.36-.92-.36-.25,0-.52.06-.83.17-.3.12-.59.33-.85.63-.27.3-.47.74-.6,1.29l-.28-.2c.13-.59.35-1.05.65-1.38.3-.33.62-.56.96-.7s.65-.21.92-.21c.33,0,.62.07.87.22s.45.33.59.57c.14.23.21.47.21.72,0,.43-.12.72-.34.87-.23.15-.47.23-.71.23v.02Z"/>
  <path class="st1" d="M45,18.11v-.39h1.31V3.5h-1.31v-.39h3.1v14.61h1.3v.39s-4.4,0-4.4,0ZM51.1,18.11v-.39h1.3v-5.7c0-.56-.02-1.05-.08-1.48-.05-.42-.16-.75-.33-.99-.17-.24-.44-.36-.81-.36-.54,0-1,.15-1.4.44-.39.29-.71.67-.96,1.12-.25.46-.43.94-.55,1.45s-.18.98-.18,1.4l-.25.05c0-.44.06-.94.17-1.5.12-.56.31-1.11.58-1.63.27-.53.63-.96,1.09-1.3s1.03-.51,1.71-.51c.77,0,1.35.13,1.74.39s.66.62.8,1.07.21.96.21,1.54v6h1.31v.39h-4.37.02Z"/>
  <path class="st1" d="M57.41,9.31v-.39h5.27v.39h-5.27ZM60.69,18.25c-.55,0-.96-.12-1.23-.36-.28-.24-.46-.55-.56-.91s-.14-.73-.14-1.1V6.91c.3,0,.62-.06.97-.19.35-.13.62-.26.82-.41v10.04c0,.5.06.83.18,1s.33.25.61.25c.31,0,.62-.14.91-.42s.52-.6.7-.95l.33.21c-.27.54-.6.98-1.01,1.31s-.93.5-1.57.5h-.01Z"/>
  <path class="st1" d="M66.84,3.11v14.61h1.48v.39h-3.31v-.39h1.42V3.5h-1.52v-.39s1.93,0,1.93,0ZM72.2,18.31l-5.56-15.2h1.92l4.63,12.51,4.33-12.51h.42l-5.25,15.2h-.49ZM81.13,3.11v.39h-1.4v14.22h1.4v.39h-4.91v-.39h1.61V3.11s3.3,0,3.3,0Z"/>
  <path class="st0" d="M86.37,8.91v8.81h1.31v.39h-4.41v-.39h1.3v-8.42h-1.3v-.39s3.1,0,3.1,0ZM85.48,5.37c-.33,0-.62-.12-.85-.35-.23-.24-.35-.52-.35-.86s.12-.61.35-.84c.23-.24.52-.36.85-.36s.61.12.84.36.36.52.36.84-.12.62-.35.86c-.23.24-.52.35-.85.35Z"/>
  <path class="st1" d="M92.99,8.91v8.81h1.29v.39h-4.35v-.39h1.31v-8.42h-1.31v-.39s3.06,0,3.06,0ZM99.09,11.73v6h1.31v.39h-4.37v-.39h1.3v-5.7c0-.56-.02-1.05-.08-1.48-.05-.42-.16-.75-.33-.99s-.44-.36-.81-.36c-.54,0-1.01.15-1.4.44s-.72.67-.97,1.12c-.25.46-.44.94-.57,1.45-.12.51-.18.98-.18,1.4l-.25.05c0-.44.06-.94.17-1.5.12-.56.31-1.11.58-1.63s.64-.96,1.11-1.3,1.05-.51,1.76-.51c.77,0,1.34.13,1.74.39.39.26.65.62.79,1.07.13.45.2.96.2,1.54h0Z"/>
  <path class="st1" d="M106.96,18.3c-.7,0-1.36-.19-1.99-.57s-1.14-.93-1.54-1.64c-.4-.71-.59-1.57-.59-2.57s.2-1.86.59-2.57.91-1.27,1.54-1.65c.63-.38,1.29-.57,1.99-.57.81,0,1.49.28,2.04.84s.93,1.32,1.15,2.26V3.5h-1.31v-.39h3.12v14.61h1.3v.39h-3.11v-2.9c-.22.95-.6,1.7-1.15,2.26s-1.23.83-2.04.83ZM107.31,17.76c.5,0,.96-.17,1.39-.5s.78-.82,1.05-1.45c.27-.63.4-1.4.4-2.29s-.13-1.67-.4-2.3c-.27-.63-.62-1.12-1.05-1.46s-.89-.5-1.39-.5-.96.17-1.32.51-.63.83-.81,1.46-.28,1.4-.28,2.29.09,1.66.28,2.29c.18.63.46,1.11.81,1.45.36.34.8.51,1.32.51h0Z"/>
  <path class="st1" d="M115.61,18.31v-2.92h.4c.07.46.25.88.54,1.25s.65.68,1.08.91.89.34,1.38.34c.37,0,.73-.06,1.06-.18.33-.12.6-.3.81-.55s.31-.57.31-.96c0-.42-.13-.75-.38-1s-.58-.45-.99-.6c-.4-.16-.83-.31-1.28-.46s-.88-.33-1.28-.54-.73-.5-.99-.85c-.26-.35-.38-.82-.38-1.41,0-.43.1-.84.29-1.23s.49-.72.89-.98c.4-.26.92-.38,1.55-.38.45,0,.87.08,1.25.22.38.15.71.35,1,.58l.75-.82h.35v2.79h-.4c-.03-.39-.18-.77-.43-1.13-.26-.36-.6-.66-1.03-.89s-.92-.35-1.47-.35c-.32,0-.61.05-.87.17-.26.11-.47.27-.63.47-.16.21-.24.45-.24.74,0,.37.14.67.41.89.27.23.62.43,1.04.6s.87.33,1.34.49c.47.16.92.36,1.34.59.42.23.77.52,1.04.88s.4.81.4,1.37c0,.59-.15,1.11-.44,1.56s-.68.79-1.17,1.04c-.49.25-1.05.37-1.68.37-.46,0-.9-.08-1.31-.24-.41-.16-.78-.38-1.1-.65l-.81.89h-.35Z"/>
</svg>