<?xml version="1.0" encoding="UTF-8"?>
<svg id="Layer_1" xmlns="http://www.w3.org/2000/svg" version="1.1" viewBox="0 0 300 300">
  <!-- Generator: Adobe Illustrator 29.8.2, SVG Export Plug-In . SVG Version: 2.1.1 Build 3)  -->
  <defs>
    <style>
      .st0, .st1 {
        fill: #ffd84b;
      }

      .st2 {
        stroke: #2d3488;
      }

      .st2, .st3, .st4, .st1, .st5, .st6, .st7 {
        isolation: isolate;
      }

      .st2, .st5 {
        fill: #2d3488;
      }

      .st2, .st6 {
        stroke-miterlimit: 10;
      }

      .st8 {
        fill: #231f20;
      }

      .st9 {
        fill: #e4b4d3;
      }

      .st3 {
        fill: #e3e5f3;
        opacity: .5;
      }

      .st3, .st1, .st5, .st6 {
        mix-blend-mode: multiply;
      }

      .st10 {
        fill: #fbd901;
      }

      .st11 {
        fill: #fff;
      }

      .st5 {
        opacity: .3;
      }

      .st12 {
        fill: #eb2338;
      }

      .st13 {
        opacity: .2;
      }

      .st6 {
        fill: #ea2137;
        stroke: #ea2137;
      }

      .st7 {
        fill: #99ca44;
      }
    </style>
  </defs>
  <g class="st4">
    <g id="Layer_11" data-name="Layer_1">
      <g id="uuid-cec23d93-4946-45c3-ba4f-17a0a2f1c73a" data-name="Layer_11">
        <path class="st5" d="M262.49,123.71c-3.59,2.5-13.83,9.08-14.36,7.75,13.85-8.08,14.2-17.06-29.88-13.94-38.39,2.72-77.5,9.84-105.39,15.91-15.46,3.29-47.35,11.56-44.32,12.46,2.85.85,27.13-6.7,31.44-6.56,1.08.04,1.86.26-6.06,2.3-34.24,8.8-64.4,19.2-79.83,28.9-1.28.81-8.39,4.96-3.24,4.76,4.08-.08,8.28-4.69,13.81-7.02.03,0,.06-.02.09-.04.44-.19.88-.35,1.34-.5.04,0,.07-.03.11-.04,1.53-.53,2.53-.7,3.1-.67,1.09.06.74.85-.05,1.35-8.96,5.71-12.95,12.07-7.38,15.8,5.94,3.98,32.23,8.59,47.1,4.97,5.89-1.44-16.04-3.18-12.97-5.01,2.2-.7,8.23-.39,9.51-.34,7.32.24,15.15.32,23.96-.08,21.44-1,37.25-3.23,52.17-5.27,24.81-3.39,53.41-9.95,72.82-15.33,6.51-1.8,31.32-9.92,9-7.3-14.93,1.71-45.67,8.67-48.77,8.28-1.22-.45,14.28-2.55,37.88-8.29,40.11-9.77,64.51-23.58,66.86-33.14,1.26-4.28-11.4-2.82-16.92,1.04h-.02ZM252.17,140.43c-7.37,3.57-16.4,7.43-26.28,10.17-12.17,3.39-24.81,6.84-38.75,9.84-5.67,1.21-11.61,2.32-17.51,3.41-2.91.55-8.95,1.44-11.15,2.21-3.95,1.38,15.34-.66,20.12-.69,12.88-.06-5.62,4.15-12.76,5.56-15.7,3.13-32.09,5.95-48.66,7.76-21.16,2.32-41,3.19-59.14,3.4-1.54,1.98-13.04,3-18,2.75-11.79-.6-13.63-4.1-12.31-7.3,1.35-3.27,4.94-7.53,15.29-11.32-3.35,1.22-6-.25-6.01-.55-.04-.81,1.87-1.92,3.55-2.86,4.61-2.58,11.79-5.32,18.61-7.89,14.71-5.56,35.36-10.69,56.63-15.3,2.5-.54,7.71-1.5,8.8-2.22,1.74-1.16-8.65.24-6.49-1.02,3.72-2.17,19.05-5.29,26.89-6.85,24.49-4.91,60.64-9.52,80.18-8.26,20.81,1.34,11.69,12.29,10.22,14.62-.66,1.04,7.96-2,12.83-2.59,5.43-.65,7.98-.96,9.33-.07,1.78,1.19.53,4.35-5.38,7.21h-.01Z"/>
        <path class="st3" d="M77.38,221.29c-13.26,2.1-26.37,2.03-38.96-.2-8.69-1.54-15.94-3.95-18.92-6.28-2.58-2.02-3.35-4.67-2.43-7.68-5.58-.08-9.04-1.05-9.47-2.72-.2-.76.22-1.68,1.27-2.8,1.33-1.42,3.43-2.9,4.43-3.61l.24-.17c9.95-7.15,26.21-14.85,47.14-22.42-.76-.84-.33-1.9,1.29-3.1,1.98-1.46,6.45-3.8,23.52-8.97,8.94-2.7,19.08-5.5,26.52-7.31,21.27-5.25,42.34-9.55,62.65-12.77,15.34-2.43,30.12-4.21,43.92-5.29,19.52-1.53,33.87-.86,41.5,1.93,1.14.42,2.12.88,2.94,1.4,5.68-.73,10.95-.93,15.08-.56,4.35.39,9.33,1.62,8.41,5.25-1.24,5.63-8.14,12.39-19.42,19.04-7.24,4.26-16,8.34-25.94,12.1,1.24.27,2.19.63,2.82,1.06,2.63,1.82-.56,4.69-9.47,8.51-4.75,2.04-10.44,4.08-13.97,5.19-8.9,2.81-40.61,12.42-74.16,17.74-.47.07-.93.15-1.4.22l-1.27.2c-12.2,1.89-27.06,4.18-45.87,5.45-1.92,1.1-4.78,2.19-8.35,3.18-3.76,1.04-7.83,1.91-12.12,2.59l.02.02Z"/>
        <g class="st13">
          <path class="st0" d="M231.13,154.88c-6.69,2.21-34.64-.28-40.86,2.35-1.29.55,14.08-.18,16.93.15,6.52.75,3.15,2.26-8.22,2.41-17.33.23-38.24,1.63-64.11,6.46-29.69,5.5-57.42,13.22-74.31,19.92-13.61,5.4-19.47,10.36-14.42,13.2,4.46,2.51,13,4.58,27.59,4.45,11.08-.1,26.17-1.19,37.19-2.28,9.96-.98,7.26.53-.53,1.96-51.77,9.53-87.39,5.96-90.79-.59-2.87,2.84-9.01,4.16-9.29,1.49-1.08-10.57,61.13-31.89,115.13-42.51,90.04-17.7,114.65-9.97,105.68-7.01h0Z"/>
          <path class="st12" d="M226.17,156.43c-5.92,1.9-30.56.06-36.07,2.32-1.14.47,12.42-.27,14.94-.02,5.74.57,2.76,1.86-7.28,2.09-15.29.34-33.75,1.69-56.62,5.95-26.24,4.85-50.78,11.53-65.74,17.27-12.05,4.63-17.27,8.81-12.84,11.15,3.91,2.06,11.44,3.71,24.31,3.47,9.78-.18,23.11-1.22,32.84-2.23,8.8-.91,6.4.38-.48,1.64-45.77,8.41-77.16,5.73-80.11.3-2.56,2.39-7.98,3.55-8.21,1.32-.86-8.82,54.22-27.16,101.95-36.49,79.6-15.56,101.25-9.32,93.31-6.77h0Z"/>
        </g>
        <path class="st0" d="M12.1,169.34c-.13-.08.82-1.83,3.19-3.93,2.36-2.09,6.12-4.4,10.58-6.07,8.94-3.39,16.73-3.85,16.75-3.49.08.45-7.51,1.58-16.21,4.88-4.36,1.63-8.03,3.7-10.46,5.49-2.43,1.8-3.65,3.26-3.86,3.11h0Z"/>
        <path class="st6" d="M121.92,189.04c-14.05,2.25-26.86,3.3-38.06,3.8-11.16.5-21.6.56-29.88-.13-9.65-.82-17.53-2.31-20.86-5.08-3.34-2.78-2.29-6.61,2.73-11.09,4.44-3.96,12.79-8.38,22.72-12.85,10.4-4.67,22.47-9.45,35.96-14,13.08-4.41,29.06-9.38,44.23-12.8,24.97-5.62,44.81-9.39,71.24-12.46,9.56-1.11,17.92-1.44,24.53-1.17,4.27.17,8.3.52,11.29,1.19,5.71-4.2-24.55-12.12-116.23,10.99-57.46,14.48-121.83,42.99-118.51,56.73.85,3.47,7.36,1.67,9.95-2.05,5.08,8.47,45.11,12.67,100.34-.37,2.26-.53,4.11-1.07,5.37-1.54-1.62.3-3.24.58-4.83.84h.01Z"/>
        <path class="st2" d="M272.31,162.18c-2.42,1.27-2.13,1.21-3.61,1.89-17.05,8.28,4.03-.23,4.38.75-.49,1.1-5.75,3.95-14.61,5.93-25.32,12.21-70.65,27.76-94.23,31.05-4.44.62-22.5,3.76-18,2.25,6.3-2.12,23.18-3.16,47.57-10.65,26.49-8.15,46.87-16.21,65.28-26.51l5.98-3.7,6.81-4.01s2.41-1.41,3.4-2.08c.07-.05,3.8-2.25,5.09-3.38l3.02-2.14c.23-.19,2.98-2.07,3.49-2.48,2.71-2.15,4.5-3.77,6.32-5.7,3.36-2.35-1.05,2.95-2.1,4.27-3.25,3.84-12.44,10.52-18.79,14.49h0v.02h0Z"/>
        <path class="st1" d="M196.2,146.79c11.42-2.86,21.86-4.71,31.01-6.02,9.11-1.31,17.66-2.23,24.46-2.4,7.92-.2,14.43.25,17.24,2.05,2.83,1.79,2.1,4.75-1.85,8.5-3.5,3.33-10.17,7.33-18.14,11.49-8.35,4.36-18.06,8.93-28.93,13.45-10.54,4.38-23.45,9.43-35.75,13.25-20.23,6.28-36.34,10.76-57.86,15.27-7.78,1.63-14.61,2.58-20.03,2.93-3.49.23-6.81.3-9.28.06-4.53,3.61,20.5,6.99,94.72-17.93,46.52-15.62,98.2-42.29,95-52.27-.81-2.51-6.08-.64-8.08,2.36-4.44-5.9-37.35-5.69-82.09,8.68-1.83.59-3.32,1.15-4.35,1.6,1.32-.36,2.63-.7,3.92-1.03h.01Z"/>
        <g>
          <g>
            <path class="st10" d="M195.83,97.02c0-29.89-24.22-54.05-54.05-54.05v117.24h17.14v-11.9c21.47-7.14,36.97-27.39,36.97-51.3h-.06Z"/>
            <path class="st9" d="M107.38,149.91c2.26,2.01,5.19,3.05,8.85,3.05,2.01,0,4.33-.3,6.77-.98v8.24h17.63V39.25c-4.15.49-11.1,3.29-12.99,10.43-2.26-1.59-5.73-3.36-9.82-3.17-4.64.12-8.97,2.62-12.81,7.38-.06.12-.18.24-.24.37-.12.31-2.93,6.1-2.01,12.2-1.83-.24-4.09-.12-6.59,1.04-5.92,2.68-10.25,10-12.81,21.59v.18c-.12,1.16-3.54,29.04,7.75,39.65,3.23,3.05,7.32,4.39,12.14,3.97-.55,4.27-.73,12.51,4.21,17.02h-.08Z"/>
            <g>
              <path class="st8" d="M118.05,86.04s4.33.79,7.63,3.42c.18.24.43.49.73.61.61.61,1.22,1.22,1.65,1.95,1.53,2.44,1.89,5.43.98,8.91h0c-.06.24-1.53,6.1-8.48,7.08-1.4,0-2.32.12-2.44.18-1.04.12-1.71,1.04-1.65,2.07.06,1.04.92,1.83,1.95,1.83.85,0,1.65,0,2.44-.12,2.26,0,5.86.43,8.36,2.56,2.01,1.71,3.05,4.27,3.11,7.69,0,1.04.92,1.89,1.95,1.89h0c1.1,0,1.95-.92,1.89-2.01-.12-4.58-1.65-8.17-4.51-10.61-1.22-1.04-2.56-1.77-3.9-2.26,3.05-2.26,4.58-5.37,5.06-7.44,1.22-4.58.67-8.66-1.46-12.02-.73-1.16-1.65-2.14-2.56-2.99-3.9-7.87,1.34-12.44,1.59-12.63.85-.67.92-1.89.24-2.75s-1.89-.98-2.75-.24c-2.26,1.83-5.25,6.34-4.21,12.44-2.56-1.16-4.7-1.53-4.88-1.53-1.04-.18-2.07.55-2.26,1.59s.55,2.07,1.59,2.26l-.06.12h0Z"/>
              <path class="st8" d="M109.51,111.91c-7.5-1.46-14.64,3.6-14.95,3.78-.85.61-1.1,1.83-.43,2.75.61.85,1.83,1.1,2.75.43,0,0,6.1-4.27,11.96-3.17,2.81.55,5.25,2.38,7.08,5.31.18.37,5,8.66-2.07,15.31-.79.73-.85,1.95-.06,2.75.37.43.92.61,1.4.61s.98-.18,1.34-.55c7.5-7.02,5.06-16.23,2.68-20.19-2.5-3.97-5.73-6.34-9.7-7.08v.06h0Z"/>
              <path class="st8" d="M170.7,59.57c-8.91-6.89-17.63-9.09-18-9.15-1.04-.24-2.14.37-2.38,1.46-.24,1.04.37,2.14,1.46,2.38.06,0,8.36,2.14,16.59,8.54,10.92,8.54,16.59,20.37,16.9,35.14,0,1.04.92,1.89,1.95,1.89h0c1.1,0,1.95-.92,1.89-2.01-.37-20.01-10.31-31.84-18.54-38.25h.13Z"/>
              <path class="st8" d="M198.45,96.59c0-31.66-25.74-57.4-57.34-57.4h-.24c-4.15.43-11.41,3.11-13.3,10.49-2.26-1.59-5.73-3.36-9.82-3.17-4.64.12-8.97,2.62-12.81,7.38-.06.12-.18.24-.24.37-.12.31-2.93,6.1-2.01,12.2-1.83-.24-4.09-.12-6.59,1.04-5.92,2.68-10.25,10-12.81,21.59v.18c-.12,1.16-3.54,29.04,7.75,39.65,3.23,3.05,7.32,4.39,12.14,3.97-.55,4.27-.73,12.51,4.21,17.02,2.26,2.01,5.19,3.05,8.85,3.05,2.01,0,4.33-.3,6.77-.98v21.78c.12,1.59.61,3.23,1.83,4.51,1.16,1.16,2.75,1.77,4.76,1.77h1.71v2.5h0v.18c.12,2.07.43,4.15,1.71,5.37.67.73,1.59,1.1,2.56,1.1h11.77c4.27,0,4.27-4.15,4.27-6.65v-2.56h1.77c6.65,0,6.65-4.15,6.65-6.65v-22.63c23.06-7.81,38.43-29.4,38.43-54.17v.06h-.02ZM156.12,168.03h-29.28v-5.43h29.28v5.43ZM147.09,158.69h-4.09v-54.53c1.04.18,2.26.37,3.66.43,0,.55,0,1.04.06,1.65.12,3.42.37,7.69.37,13.24v39.22h0ZM110,146.98c-5.12-4.64-2.62-15.86-2.56-15.98.12-.67,0-1.34-.49-1.77-.49-.49-1.16-.67-1.77-.55-4.82.92-8.54.06-11.41-2.62-8.11-7.56-7.32-26.9-6.77-33.79.49,0,.92-.18,1.28-.55.06-.06,7.02-6.95,13.18-5.37,3.78.98,6.77,5.06,8.72,12.14.24.85,1.04,1.4,1.89,1.4.18,0,.37,0,.55-.06,1.04-.31,1.65-1.4,1.34-2.44-2.44-8.48-6.28-13.48-11.53-14.82-5.67-1.46-11.29,1.83-14.46,4.21,2.87-10.43,6.83-14.27,9.82-15.68,2.81-1.34,5.31-.73,6.34-.31,0,.06.06.12.12.18,2.38,4.64,7.32,7.63,14.64,8.78h.31c.92,0,1.77-.67,1.95-1.65.18-1.04-.55-2.07-1.65-2.26-5.98-.98-9.94-3.23-11.77-6.71-2.68-5.19,0-11.83.55-12.99,3.05-3.66,6.28-5.61,9.7-5.73,5.49-.18,9.76,4.39,9.76,4.39.55.61,1.4.79,2.14.49.73-.31,1.22-1.04,1.22-1.83,0-3.84,1.65-6.71,4.88-8.6,1.1-.67,2.26-1.04,3.17-1.34v115.11h-12.26v-10c0-.06,0-.12-.06-.18,0,0,0-.12-.06-.18,0,0-.06-.12-.12-.18,0,0-.06-.12-.12-.12l-.12-.12s-.12-.06-.12-.12c0,0-.12-.06-.18-.12,0,0-.12-.06-.18-.06,0,0-.12,0-.18-.06h-1.28c-6.71,2.2-11.53,2.01-14.34-.49h-.12v-.02h-.01ZM147.76,182.61c0,.92,0,2.26-.18,2.75h-11.83c-.31-.49-.43-1.83-.49-3.05v-2.26h12.51v2.56h0ZM155.88,175.59s-.92.55-2.5.55h-23.79c-1.4,0-1.83-.43-1.95-.61-.49-.49-.67-1.34-.73-2.32v-1.28h29.28v1.46c0,.85,0,1.83-.24,2.2h-.07,0ZM157.52,147.47h-.06c-.06,0-.12,0-.18.06,0,0-.12,0-.18.06,0,0-.12.06-.18.12,0,0-.12.06-.12.12l-.12.12s-.06.12-.12.12c0,0-.06.12-.12.18,0,0,0,.12-.06.18,0,0,0,.12-.06.18v9.94h-5.12v-39.22c0-5.61-.18-9.94-.37-13.42v-1.4c4.94-.24,10.25-1.95,12.26-7.44.98-2.68-.24-6.16-2.75-7.93-1.34-.92-4.94-2.68-9.82,1.34-3.05,2.5-3.72,5.31-3.72,10-1.4-.12-2.68-.31-3.54-.49v-56.85c28.61,1.04,51.55,24.58,51.55,53.44,0,23.55-14.88,44.04-37.03,50.94l-.24-.06h-.02s0,.01,0,.01ZM150.51,100.8c0-4.03.43-5.55,2.32-7.08.98-.85,2.32-1.65,3.54-1.65.49,0,1.04.12,1.53.49,1.16.79,1.71,2.5,1.34,3.42-1.28,3.54-5,4.64-8.72,4.88v-.06h0Z"/>
            </g>
          </g>
          <rect class="st11" x="126.84" y="162.6" width="29.28" height="5.43"/>
          <path class="st11" d="M126.84,171.93h29.28v2.72c0,.83-.67,1.49-1.49,1.49h-26.29c-.83,0-1.49-.67-1.49-1.49v-2.72h-.01Z"/>
          <path class="st11" d="M135.26,179.99h12.5v4.72c0,.39-.32.71-.71.71h-11.08c-.39,0-.71-.32-.71-.71v-4.72h0Z"/>
        </g>
        <path class="st7" d="M250.09,153.75c9.83-4.29,23.21-15.25,25.8-15.68,6.71-1.18-4.74,7.47-19.58,15.35-8.95,4.76-20.05,9.35-29.88,13.73-32.47,14.44-76.29,30.84-105.2,31.93-5.44.21-8.59.17-6.81-1.65,4.07-2.39,12.61-1.53,43.18-8.91,33.2-8.03,63.31-23.25,86.69-38.54.32-.21-.32.21,0,0,10-6.54,15.62-12.95,18.53-16.55,0,0-.01,0,0,0,2.05-2.36,3.5-4.31,4.52-7.34.81-.88,1.63-5.28,3.16-4.78,4.16,1.37,2.59,8.83,1.11,10.67-3.15,6.25-14.04,16.13-21.52,21.81v-.03h0Z"/>
      </g>
    </g>
  </g>
</svg>