<?xml version="1.0" encoding="UTF-8"?>
<svg id="Layer_1" xmlns="http://www.w3.org/2000/svg" version="1.1" viewBox="0 0 25 25">
  <!-- Generator: Adobe Illustrator 29.8.2, SVG Export Plug-In . SVG Version: 2.1.1 Build 3)  -->
  <defs>
    <style>
      .st0 {
        fill: none;
        stroke: #2d3488;
        stroke-miterlimit: 10;
        stroke-width: .2px;
      }

      .st1 {
        fill: #2d3488;
      }

      .st2 {
        fill: #e2e4f2;
      }
    </style>
  </defs>
  <path class="st2" d="M.6,12.5h0C.6,6.15,5.75,1,12.1,1h0c6.35,0,11.5,5.15,11.5,11.5h0c0,6.35-5.15,11.5-11.5,11.5h0C5.75,24,.6,18.85.6,12.5Z"/>
  <g>
    <path class="st0" d="M12.1,24.45h0C5.75,24.45.6,19.3.6,12.95h0C.6,6.6,5.75,1.45,12.1,1.45h0c6.35,0,11.5,5.15,11.5,11.5h0c0,6.35-5.15,11.5-11.5,11.5Z"/>
    <path class="st0" d="M12.9,24.45h0c-6.35,0-11.5-5.15-11.5-11.5h0c0-6.35,5.15-11.5,11.5-11.5h0c6.35,0,11.5,5.15,11.5,11.5h0c0,6.35-5.15,11.5-11.5,11.5Z"/>
    <path class="st0" d="M.6,12.05h0C.6,5.7,5.75.55,12.1.55h0c6.35,0,11.5,5.15,11.5,11.5h0c0,6.35-5.15,11.5-11.5,11.5h0C5.75,23.55.6,18.4.6,12.05Z"/>
  </g>
  <path class="st1" d="M18.94,6.97c-.05-.07-.14-.1-.22-.09-.02,0-.04,0-.05,0l-14.48,3.94c-.11.03-.18.12-.18.24,0,.11.07.21.17.24l5.3,1.74-.47,3.79c-.01.1.04.2.12.25.04.02.08.03.12.03.05,0,.11-.02.15-.05l1.94-1.49,1.7,2.43c.05.07.12.11.2.11h.02c.09,0,.17-.06.21-.14l5.51-10.74c.05-.09.03-.19-.03-.27h0ZM17.21,7.81l-7.5,4.79-4.59-1.5,12.09-3.29ZM9.57,16.31l.35-2.76,1.14,1.63-1.48,1.14ZM13.21,17.39l-3.11-4.44,8.02-5.12-4.91,9.56ZM13.21,17.39"/>
</svg>