<?xml version="1.0" encoding="UTF-8"?>
<svg id="Layer_1" xmlns="http://www.w3.org/2000/svg" version="1.1" viewBox="0 0 25 25">
  <!-- Generator: Adobe Illustrator 29.8.2, SVG Export Plug-In . SVG Version: 2.1.1 Build 3)  -->
  <defs>
    <style>
      .st0 {
        fill: none;
        stroke: #e2e4f2;
        stroke-miterlimit: 10;
        stroke-width: .2px;
      }

      .st1 {
        fill: #2d3488;
      }

      .st2 {
        fill: #e2e4f2;
      }
    </style>
  </defs>
  <g>
    <path class="st1" d="M.5,12.5h0C.5,5.87,5.87.5,12.5.5h0c6.63,0,12,5.37,12,12h0c0,6.63-5.37,12-12,12h0C5.87,24.5.5,19.13.5,12.5Z"/>
    <g>
      <path class="st0" d="M12.12,23.97h0c-6.1,0-11.04-4.94-11.04-11.04h0C1.08,6.84,6.02,1.89,12.12,1.89h0c6.1,0,11.04,4.94,11.04,11.04h0c0,6.1-4.94,11.04-11.04,11.04Z"/>
      <path class="st0" d="M12.88,23.97h0c-6.1,0-11.04-4.94-11.04-11.04h0c0-6.1,4.94-11.04,11.04-11.04h0c6.1,0,11.04,4.94,11.04,11.04h0c0,6.1-4.94,11.04-11.04,11.04Z"/>
      <path class="st0" d="M1.08,12.07h0C1.08,5.97,6.02,1.03,12.12,1.03h0c6.1,0,11.04,4.94,11.04,11.04h0c0,6.1-4.94,11.04-11.04,11.04h0c-6.1,0-11.04-4.94-11.04-11.04Z"/>
    </g>
  </g>
  <path class="st2" d="M15.1,13.14l.46-2h-2.08v-1.37c0-.56.31-1.16,1.11-1.16h.97v-2.11h-1.46c-2.07,0-3.05,1.23-3.05,2.98v1.66h-1.62v2h1.62v5.21c.47.09.95.14,1.44.14.33,0,.66-.02.98-.07v-5.29h1.62Z"/>
</svg>