<?xml version="1.0" encoding="UTF-8"?>
<svg id="Layer_1" xmlns="http://www.w3.org/2000/svg" version="1.1" viewBox="0 0 25 25">
  <!-- Generator: Adobe Illustrator 29.8.2, SVG Export Plug-In . SVG Version: 2.1.1 Build 3)  -->
  <defs>
    <style>
      .st0 {
        fill: none;
        stroke: #e2e4f2;
        stroke-miterlimit: 10;
        stroke-width: .2px;
      }

      .st1 {
        fill: #2d3488;
      }

      .st2 {
        fill: #e2e4f2;
      }
    </style>
  </defs>
  <g>
    <path class="st1" d="M.5,12.5h0C.5,5.87,5.87.5,12.5.5h0c6.63,0,12,5.37,12,12h0c0,6.63-5.37,12-12,12h0C5.87,24.5.5,19.13.5,12.5Z"/>
    <g>
      <path class="st0" d="M12.12,23.97h0c-6.1,0-11.04-4.94-11.04-11.04h0c0-6.09,4.94-11.04,11.04-11.04h0c6.1,0,11.04,4.94,11.04,11.04h0c0,6.1-4.94,11.04-11.04,11.04Z"/>
      <path class="st0" d="M12.88,23.97h0c-6.1,0-11.04-4.94-11.04-11.04h0C1.84,6.83,6.78,1.89,12.88,1.89h0c6.1,0,11.04,4.94,11.04,11.04h0c0,6.1-4.94,11.04-11.04,11.04Z"/>
      <path class="st0" d="M1.08,12.07h0C1.08,5.97,6.02,1.03,12.12,1.03h0c6.1,0,11.04,4.94,11.04,11.04h0c0,6.1-4.94,11.04-11.04,11.04h0c-6.1,0-11.04-4.94-11.04-11.04Z"/>
    </g>
  </g>
  <g>
    <path class="st2" d="M9.72,8.61c0,.61-.39,1.11-1.11,1.11-.67,0-1.11-.5-1.11-1.06,0-.61.44-1.17,1.11-1.17s1.11.5,1.11,1.11Z"/>
    <rect class="st2" x="7.5" y="10.28" width="2.22" height="7.22"/>
    <path class="st2" d="M15.06,10.39c-1.17,0-1.83.67-2.11,1.11h-.06l-.11-.94h-2c0,.61.06,1.33.06,2.17v4.78h2.22v-3.94c0-.22,0-.39.06-.56.17-.39.44-.89,1.06-.89.78,0,1.11.67,1.11,1.56v3.83h2.22v-4.11c0-2.06-1.06-3-2.44-3Z"/>
  </g>
</svg>