<?xml version="1.0" encoding="UTF-8"?>
<svg id="Layer_1" xmlns="http://www.w3.org/2000/svg" version="1.1" viewBox="0 0 25 25">
  <!-- Generator: Adobe Illustrator 29.8.2, SVG Export Plug-In . SVG Version: 2.1.1 Build 3)  -->
  <defs>
    <style>
      .st0 {
        fill: #ffd84b;
      }

      .st1 {
        fill: #231f20;
      }

      .st2 {
        fill: #e4b4d3;
      }
    </style>
  </defs>
  <path class="st0" d="M21.56,9.68c0-4.9-3.97-8.86-8.86-8.86v19.22h2.81v-1.95c3.52-1.17,6.06-4.49,6.06-8.41h-.01Z"/>
  <path class="st2" d="M7.06,18.35c.37.33.85.5,1.45.5.33,0,.71-.05,1.11-.16v1.35h2.89V.21c-.68.08-1.82.54-2.13,1.71-.37-.26-.94-.55-1.61-.52-.76.02-1.47.43-2.1,1.21-.01.02-.03.04-.04.06-.02.05-.48,1-.33,2-.3-.04-.67-.02-1.08.17-.97.44-1.68,1.64-2.1,3.54v.03c-.02.19-.58,4.76,1.27,6.5.53.5,1.2.72,1.99.65-.09.7-.12,2.05.69,2.79h-.01Z"/>
  <g>
    <path class="st1" d="M8.81,7.88s.71.13,1.25.56c.03.04.07.08.12.1.1.1.2.2.27.32.25.4.31.89.16,1.46h0s-.25,1-1.39,1.16c-.23,0-.38.02-.4.03-.17.02-.28.17-.27.34.01.17.15.3.32.3.14,0,.27,0,.4-.02.37,0,.96.07,1.37.42.33.28.5.7.51,1.26,0,.17.15.31.32.31h0c.18,0,.32-.15.31-.33-.02-.75-.27-1.34-.74-1.74-.2-.17-.42-.29-.64-.37.5-.37.75-.88.83-1.22.2-.75.11-1.42-.24-1.97-.12-.19-.27-.35-.42-.49-.64-1.29.22-2.04.26-2.07.14-.11.15-.31.04-.45s-.31-.16-.45-.04c-.37.3-.86,1.04-.69,2.04-.42-.19-.77-.25-.8-.25-.17-.03-.34.09-.37.26s.09.34.26.37v.02Z"/>
    <path class="st1" d="M7.41,12.12c-1.23-.24-2.4.59-2.45.62-.14.1-.18.3-.07.45.1.14.3.18.45.07,0,0,1-.7,1.96-.52.46.09.86.39,1.16.87.03.06.82,1.42-.34,2.51-.13.12-.14.32-.01.45.06.07.15.1.23.1s.16-.03.22-.09c1.23-1.15.83-2.66.44-3.31-.41-.65-.94-1.04-1.59-1.16h0Z"/>
    <path class="st1" d="M17.44,3.54c-1.46-1.13-2.89-1.49-2.95-1.5-.17-.04-.35.06-.39.24-.04.17.06.35.24.39.01,0,1.37.35,2.72,1.4,1.79,1.4,2.72,3.34,2.77,5.76,0,.17.15.31.32.31h0c.18,0,.32-.15.31-.33-.06-3.28-1.69-5.22-3.04-6.27h.02Z"/>
    <path class="st1" d="M21.99,9.61C21.99,4.42,17.77.2,12.59.2h-.04c-.68.07-1.87.51-2.18,1.72-.37-.26-.94-.55-1.61-.52-.76.02-1.47.43-2.1,1.21-.01.02-.03.04-.04.06-.02.05-.48,1-.33,2-.3-.04-.67-.02-1.08.17-.97.44-1.68,1.64-2.1,3.54v.03c-.02.19-.58,4.76,1.27,6.5.53.5,1.2.72,1.99.65-.09.7-.12,2.05.69,2.79.37.33.85.5,1.45.5.33,0,.71-.05,1.11-.16v3.57c.02.26.1.53.3.74.19.19.45.29.78.29h.28v.41h0v.03c.02.34.07.68.28.88.11.12.26.18.42.18h1.93c.7,0,.7-.68.7-1.09v-.42h.29c1.09,0,1.09-.68,1.09-1.09v-3.71c3.78-1.28,6.3-4.82,6.3-8.88h0ZM15.05,21.32h-4.8v-.89h4.8v.89ZM13.57,19.79h-.67v-8.94c.17.03.37.06.6.07,0,.09,0,.17.01.27.02.56.06,1.26.06,2.17,0,0,0,6.43,0,6.43ZM7.49,17.87c-.84-.76-.43-2.6-.42-2.62.02-.11,0-.22-.08-.29-.08-.08-.19-.11-.29-.09-.79.15-1.4.01-1.87-.43-1.33-1.24-1.2-4.41-1.11-5.54.08,0,.15-.03.21-.09,0-.01,1.15-1.14,2.16-.88.62.16,1.11.83,1.43,1.99.04.14.17.23.31.23.03,0,.06,0,.09-.01.17-.05.27-.23.22-.4-.4-1.39-1.03-2.21-1.89-2.43-.93-.24-1.85.3-2.37.69.47-1.71,1.12-2.34,1.61-2.57.46-.22.87-.12,1.04-.05,0,.01.01.02.02.03.39.76,1.2,1.25,2.4,1.44h.05c.15,0,.29-.11.32-.27.03-.17-.09-.34-.27-.37-.98-.16-1.63-.53-1.93-1.1-.44-.85,0-1.94.09-2.13.5-.6,1.03-.92,1.59-.94.9-.03,1.6.72,1.6.72.09.1.23.13.35.08.12-.05.2-.17.2-.3,0-.63.27-1.1.8-1.41.18-.11.37-.17.52-.22v18.87h-2.01v-1.63h0s0-.03-.01-.04c0,0,0-.02-.01-.03,0,0-.01-.02-.02-.03,0,0-.01-.02-.02-.02l-.02-.02s-.02-.01-.02-.02c0,0-.02-.01-.03-.02,0,0-.02-.01-.03-.01,0,0-.02,0-.03-.01h-.21c-1.1.36-1.89.33-2.35-.08h-.02ZM13.68,23.71c0,.15,0,.37-.03.45h-1.94c-.05-.08-.07-.3-.08-.5v-.37h2.05s0,.42,0,.42ZM15.01,22.56s-.15.09-.41.09h-3.9c-.23,0-.3-.07-.32-.1-.08-.08-.11-.22-.12-.38v-.21h4.8v.24c0,.14,0,.3-.04.36h-.01ZM15.28,17.95h-.01s-.02,0-.03.01c0,0-.02,0-.03.01,0,0-.02.01-.03.02,0,0-.02.01-.02.02l-.02.02s-.01.02-.02.02c0,0-.01.02-.02.03,0,0,0,.02-.01.03,0,0,0,.02-.01.03v.09h0v1.54h-.84v-6.43c0-.92-.03-1.63-.06-2.2v-.23c.81-.04,1.68-.32,2.01-1.22.16-.44-.04-1.01-.45-1.3-.22-.15-.81-.44-1.61.22-.5.41-.61.87-.61,1.64-.23-.02-.44-.05-.58-.08V.85c4.69.17,8.45,4.03,8.45,8.76,0,3.86-2.44,7.22-6.07,8.35h-.04ZM14.13,10.3c0-.66.07-.91.38-1.16.16-.14.38-.27.58-.27.08,0,.17.02.25.08.19.13.28.41.22.56-.21.58-.82.76-1.43.8h0Z"/>
  </g>
</svg>