<?xml version="1.0" encoding="UTF-8"?>
<svg id="Layer_1" xmlns="http://www.w3.org/2000/svg" version="1.1" viewBox="0 0 25 25">
  <!-- Generator: Adobe Illustrator 29.8.2, SVG Export Plug-In . SVG Version: 2.1.1 Build 3)  -->
  <defs>
    <style>
      .st0 {
        fill-rule: evenodd;
        stroke-width: .5px;
      }

      .st0, .st1 {
        fill: none;
        stroke: #2d3488;
        stroke-miterlimit: 10;
      }

      .st1 {
        stroke-width: .2px;
      }
    </style>
  </defs>
  <path class="st0" d="M18.13,14.99c-.32-.15-1.87-.91-2.14-1.01-.29-.11-.49-.15-.71.15-.22.32-.81,1.01-.99,1.22-.19.22-.37.23-.69.08s-1.32-.48-2.52-1.55c-.93-.82-1.56-1.84-1.75-2.16-.18-.32-.01-.48.14-.63.14-.14.32-.37.47-.55.04-.05.08-.1.11-.15.08-.11.13-.22.2-.37.11-.22.05-.39-.03-.55s-.71-1.69-.98-2.32c-.25-.62-.52-.52-.71-.52s-.39-.03-.6-.03-.56.08-.84.39c-.29.32-1.1,1.07-1.1,2.6,0,.36.06.72.16,1.07.32,1.1,1,2,1.12,2.16.15.2,2.17,3.45,5.37,4.7,3.2,1.24,3.2.82,3.77.77.57-.05,1.87-.75,2.12-1.48.27-.72.27-1.34.19-1.48-.08-.13-.29-.2-.6-.36h0v.02h0Z"/>
  <g>
    <path class="st1" d="M12.1,24.45h0C5.75,24.45.6,19.3.6,12.95h0C.6,6.6,5.75,1.45,12.1,1.45h0c6.35,0,11.5,5.15,11.5,11.5h0c0,6.35-5.15,11.5-11.5,11.5Z"/>
    <path class="st1" d="M12.9,24.45h0c-6.35,0-11.5-5.15-11.5-11.5h0C1.4,6.6,6.55,1.45,12.9,1.45h0c6.35,0,11.5,5.15,11.5,11.5h0c0,6.35-5.15,11.5-11.5,11.5Z"/>
    <path class="st1" d="M.6,12.05h0C.6,5.7,5.75.55,12.1.55h0c6.35,0,11.5,5.15,11.5,11.5h0c0,6.35-5.15,11.5-11.5,11.5h0C5.75,23.55.6,18.4.6,12.05Z"/>
  </g>
</svg>